<mxfile host="app.diagrams.net" agent="Mozilla/5.0 (Macintosh; Intel Mac OS X 10_15_7) AppleWebKit/537.36 (KHTML, like Gecko) Chrome/140.0.0.0 Safari/537.36" version="26.0.13">
  <diagram name="Page-1" id="aaaa8250-4180-3840-79b5-4cada1eebb92">
    <mxGraphModel grid="1" page="1" gridSize="10" guides="1" tooltips="1" connect="1" arrows="1" fold="1" pageScale="1" pageWidth="850" pageHeight="1100" background="none" math="0" shadow="0">
      <root>
        <mxCell id="0" />
        <mxCell id="1" parent="0" />
        <mxCell id="f5hSvnvCY-JdjGYWSw_D-32" value="" style="whiteSpace=wrap;html=1;shape=mxgraph.basic.cloud_rect" vertex="1" parent="1">
          <mxGeometry x="10" y="250" width="1020" height="520" as="geometry" />
        </mxCell>
        <mxCell id="f5hSvnvCY-JdjGYWSw_D-15" value="AWS" style="ellipse;shape=cloud;whiteSpace=wrap;html=1;" vertex="1" parent="1">
          <mxGeometry x="105.95" y="300" width="260" height="170" as="geometry" />
        </mxCell>
        <mxCell id="f5hSvnvCY-JdjGYWSw_D-1" value="" style="outlineConnect=0;dashed=0;verticalLabelPosition=bottom;verticalAlign=top;align=center;html=1;shape=mxgraph.aws3.volume;fillColor=#E05243;gradientColor=none;" vertex="1" parent="1">
          <mxGeometry x="251.25" y="620" width="56" height="80" as="geometry" />
        </mxCell>
        <mxCell id="f5hSvnvCY-JdjGYWSw_D-2" value="" style="verticalLabelPosition=bottom;aspect=fixed;html=1;shape=mxgraph.salesforce.web;" vertex="1" parent="1">
          <mxGeometry x="30" y="840" width="75.95" height="60" as="geometry" />
        </mxCell>
        <mxCell id="f5hSvnvCY-JdjGYWSw_D-3" value="Actor" style="shape=umlActor;verticalLabelPosition=bottom;verticalAlign=top;html=1;outlineConnect=0;" vertex="1" parent="1">
          <mxGeometry x="262.5" y="840" width="30" height="60" as="geometry" />
        </mxCell>
        <mxCell id="f5hSvnvCY-JdjGYWSw_D-4" style="edgeStyle=none;curved=1;rounded=0;orthogonalLoop=1;jettySize=auto;html=1;exitX=0.5;exitY=0.5;exitDx=0;exitDy=0;exitPerimeter=0;fontSize=12;startSize=8;endSize=8;" edge="1" parent="1" source="f5hSvnvCY-JdjGYWSw_D-3">
          <mxGeometry relative="1" as="geometry">
            <mxPoint x="119" y="870" as="targetPoint" />
          </mxGeometry>
        </mxCell>
        <mxCell id="f5hSvnvCY-JdjGYWSw_D-17" value="" style="verticalLabelPosition=bottom;html=1;verticalAlign=top;strokeWidth=1;align=center;outlineConnect=0;dashed=0;outlineConnect=0;shape=mxgraph.aws3d.application_server;fillColor=#ECECEC;strokeColor=#5E5E5E;aspect=fixed;" vertex="1" parent="1">
          <mxGeometry x="550" y="595.5" width="123" height="124" as="geometry" />
        </mxCell>
        <mxCell id="f5hSvnvCY-JdjGYWSw_D-18" value="" style="endArrow=classic;html=1;rounded=0;fontSize=12;startSize=8;endSize=8;curved=1;entryX=1;entryY=0.5;entryDx=0;entryDy=0;entryPerimeter=0;dashed=1;flowAnimation=1;" edge="1" parent="1" source="f5hSvnvCY-JdjGYWSw_D-17" target="f5hSvnvCY-JdjGYWSw_D-1">
          <mxGeometry width="50" height="50" relative="1" as="geometry">
            <mxPoint x="510" y="590" as="sourcePoint" />
            <mxPoint x="560" y="540" as="targetPoint" />
          </mxGeometry>
        </mxCell>
        <mxCell id="f5hSvnvCY-JdjGYWSw_D-19" value="&lt;blockquote style=&quot;margin: 0 0 0 40px; border: none; padding: 0px;&quot;&gt;D - EBS&lt;/blockquote&gt;" style="text;html=1;align=center;verticalAlign=middle;resizable=0;points=[];autosize=1;strokeColor=none;fillColor=none;fontSize=16;" vertex="1" parent="1">
          <mxGeometry x="210" y="700" width="120" height="30" as="geometry" />
        </mxCell>
        <mxCell id="f5hSvnvCY-JdjGYWSw_D-20" value="&lt;blockquote style=&quot;margin: 0 0 0 40px; border: none; padding: 0px;&quot;&gt;EC2&lt;/blockquote&gt;" style="text;html=1;align=center;verticalAlign=middle;resizable=0;points=[];autosize=1;strokeColor=none;fillColor=none;fontSize=16;" vertex="1" parent="1">
          <mxGeometry x="555" y="719.5" width="90" height="30" as="geometry" />
        </mxCell>
        <mxCell id="f5hSvnvCY-JdjGYWSw_D-25" style="edgeStyle=none;curved=1;rounded=0;orthogonalLoop=1;jettySize=auto;html=1;exitX=0;exitY=0.5;exitDx=0;exitDy=0;exitPerimeter=0;fontSize=12;startSize=8;endSize=8;dashed=1;flowAnimation=1;" edge="1" parent="1" source="f5hSvnvCY-JdjGYWSw_D-21" target="f5hSvnvCY-JdjGYWSw_D-17">
          <mxGeometry relative="1" as="geometry" />
        </mxCell>
        <mxCell id="f5hSvnvCY-JdjGYWSw_D-21" value="" style="outlineConnect=0;dashed=0;verticalLabelPosition=bottom;verticalAlign=top;align=center;html=1;shape=mxgraph.aws3.volume;fillColor=#E05243;gradientColor=none;" vertex="1" parent="1">
          <mxGeometry x="881.25" y="617.5" width="56" height="80" as="geometry" />
        </mxCell>
        <mxCell id="f5hSvnvCY-JdjGYWSw_D-22" value="&lt;blockquote style=&quot;margin: 0 0 0 40px; border: none; padding: 0px;&quot;&gt;E - EBS&lt;/blockquote&gt;" style="text;html=1;align=center;verticalAlign=middle;resizable=0;points=[];autosize=1;strokeColor=none;fillColor=none;fontSize=16;" vertex="1" parent="1">
          <mxGeometry x="830" y="700" width="120" height="30" as="geometry" />
        </mxCell>
        <mxCell id="f5hSvnvCY-JdjGYWSw_D-23" value="" style="edgeStyle=segmentEdgeStyle;endArrow=classic;html=1;curved=0;rounded=0;endSize=8;startSize=8;sourcePerimeterSpacing=0;targetPerimeterSpacing=0;fontSize=12;entryX=0;entryY=0.5;entryDx=0;entryDy=0;entryPerimeter=0;exitX=0.527;exitY=0.08;exitDx=0;exitDy=0;exitPerimeter=0;dashed=1;flowAnimation=1;" edge="1" parent="1" source="f5hSvnvCY-JdjGYWSw_D-2" target="f5hSvnvCY-JdjGYWSw_D-1">
          <mxGeometry width="140" relative="1" as="geometry">
            <mxPoint x="70" y="810" as="sourcePoint" />
            <mxPoint x="170" y="690" as="targetPoint" />
            <Array as="points">
              <mxPoint x="70" y="660" />
            </Array>
          </mxGeometry>
        </mxCell>
        <mxCell id="f5hSvnvCY-JdjGYWSw_D-24" value="Enviar arquivo" style="edgeLabel;html=1;align=center;verticalAlign=middle;resizable=0;points=[];fontSize=12;" connectable="0" vertex="1" parent="f5hSvnvCY-JdjGYWSw_D-23">
          <mxGeometry x="0.1085" y="1" relative="1" as="geometry">
            <mxPoint x="-19" y="61" as="offset" />
          </mxGeometry>
        </mxCell>
        <mxCell id="f5hSvnvCY-JdjGYWSw_D-26" value="" style="outlineConnect=0;dashed=0;verticalLabelPosition=bottom;verticalAlign=top;align=center;html=1;shape=mxgraph.aws3.rds;fillColor=#2E73B8;gradientColor=none;" vertex="1" parent="1">
          <mxGeometry x="740" y="420" width="72" height="81" as="geometry" />
        </mxCell>
        <mxCell id="f5hSvnvCY-JdjGYWSw_D-28" value="" style="edgeStyle=segmentEdgeStyle;endArrow=classic;html=1;curved=0;rounded=0;endSize=8;startSize=8;sourcePerimeterSpacing=0;targetPerimeterSpacing=0;fontSize=12;dashed=1;entryX=0;entryY=0.5;entryDx=0;entryDy=0;entryPerimeter=0;flowAnimation=1;" edge="1" parent="1" source="f5hSvnvCY-JdjGYWSw_D-17" target="f5hSvnvCY-JdjGYWSw_D-26">
          <mxGeometry width="140" relative="1" as="geometry">
            <mxPoint x="618" y="360" as="sourcePoint" />
            <mxPoint x="490" y="495" as="targetPoint" />
            <Array as="points">
              <mxPoint x="612" y="461" />
            </Array>
          </mxGeometry>
        </mxCell>
        <mxCell id="f5hSvnvCY-JdjGYWSw_D-29" value="RDS" style="edgeLabel;html=1;align=center;verticalAlign=middle;resizable=0;points=[];fontSize=12;" connectable="0" vertex="1" parent="f5hSvnvCY-JdjGYWSw_D-28">
          <mxGeometry x="0.4485" y="-2" relative="1" as="geometry">
            <mxPoint x="-55" y="38" as="offset" />
          </mxGeometry>
        </mxCell>
        <mxCell id="f5hSvnvCY-JdjGYWSw_D-33" value="" style="verticalLabelPosition=bottom;html=1;verticalAlign=top;strokeWidth=1;align=center;outlineConnect=0;dashed=0;outlineConnect=0;shape=mxgraph.aws3d.lambda;fillColor=#ECECEC;strokeColor=#5E5E5E;aspect=fixed;" vertex="1" parent="1">
          <mxGeometry x="1581" y="550" width="92" height="109.5" as="geometry" />
        </mxCell>
        <mxCell id="f5hSvnvCY-JdjGYWSw_D-34" value="" style="verticalLabelPosition=bottom;html=1;verticalAlign=top;strokeWidth=1;align=center;outlineConnect=0;dashed=0;outlineConnect=0;shape=mxgraph.aws3d.s3Bucket;fillColor=#4286c5;strokeColor=#57A2D8;aspect=fixed;" vertex="1" parent="1">
          <mxGeometry x="1310" y="540" width="111.5" height="115.67" as="geometry" />
        </mxCell>
        <mxCell id="f5hSvnvCY-JdjGYWSw_D-36" style="edgeStyle=orthogonalEdgeStyle;rounded=0;orthogonalLoop=1;jettySize=auto;html=1;exitX=0.471;exitY=0.913;exitDx=0;exitDy=0;fontSize=12;startSize=8;endSize=8;exitPerimeter=0;dashed=1;flowAnimation=1;" edge="1" parent="1" source="f5hSvnvCY-JdjGYWSw_D-35" target="f5hSvnvCY-JdjGYWSw_D-34">
          <mxGeometry relative="1" as="geometry">
            <Array as="points">
              <mxPoint x="1288" y="598" />
            </Array>
          </mxGeometry>
        </mxCell>
        <mxCell id="f5hSvnvCY-JdjGYWSw_D-48" value="AWS CLI&lt;div&gt;Transfer File&lt;/div&gt;" style="edgeLabel;html=1;align=center;verticalAlign=middle;resizable=0;points=[];fontSize=12;" connectable="0" vertex="1" parent="f5hSvnvCY-JdjGYWSw_D-36">
          <mxGeometry x="-0.3265" y="-5" relative="1" as="geometry">
            <mxPoint y="-1" as="offset" />
          </mxGeometry>
        </mxCell>
        <mxCell id="f5hSvnvCY-JdjGYWSw_D-35" value="Arquivo" style="shape=document;whiteSpace=wrap;html=1;boundedLbl=1;" vertex="1" parent="1">
          <mxGeometry x="1238" y="410" width="106" height="50" as="geometry" />
        </mxCell>
        <mxCell id="f5hSvnvCY-JdjGYWSw_D-37" value="S3" style="text;html=1;align=center;verticalAlign=middle;resizable=0;points=[];autosize=1;strokeColor=none;fillColor=none;fontSize=16;" vertex="1" parent="1">
          <mxGeometry x="1344" y="671" width="40" height="30" as="geometry" />
        </mxCell>
        <mxCell id="f5hSvnvCY-JdjGYWSw_D-38" value="Lambda Function" style="text;html=1;align=center;verticalAlign=middle;resizable=0;points=[];autosize=1;strokeColor=none;fillColor=none;fontSize=16;" vertex="1" parent="1">
          <mxGeometry x="1550" y="671" width="150" height="30" as="geometry" />
        </mxCell>
        <mxCell id="f5hSvnvCY-JdjGYWSw_D-39" value="" style="edgeStyle=segmentEdgeStyle;endArrow=classic;html=1;curved=0;rounded=0;endSize=8;startSize=8;sourcePerimeterSpacing=0;targetPerimeterSpacing=0;fontSize=12;dashed=1;flowAnimation=1;" edge="1" parent="1" source="f5hSvnvCY-JdjGYWSw_D-34" target="f5hSvnvCY-JdjGYWSw_D-33">
          <mxGeometry width="140" relative="1" as="geometry">
            <mxPoint x="1430" y="470" as="sourcePoint" />
            <mxPoint x="1630" y="530" as="targetPoint" />
            <Array as="points">
              <mxPoint x="1366" y="490" />
              <mxPoint x="1630" y="490" />
            </Array>
          </mxGeometry>
        </mxCell>
        <mxCell id="f5hSvnvCY-JdjGYWSw_D-40" value="Trigger" style="edgeLabel;html=1;align=center;verticalAlign=middle;resizable=0;points=[];fontSize=12;" connectable="0" vertex="1" parent="f5hSvnvCY-JdjGYWSw_D-39">
          <mxGeometry x="-0.1251" y="5" relative="1" as="geometry">
            <mxPoint x="-1" as="offset" />
          </mxGeometry>
        </mxCell>
        <mxCell id="f5hSvnvCY-JdjGYWSw_D-43" style="edgeStyle=orthogonalEdgeStyle;rounded=0;orthogonalLoop=1;jettySize=auto;html=1;exitX=0.5;exitY=0.5;exitDx=0;exitDy=0;exitPerimeter=0;fontSize=12;startSize=8;endSize=8;entryX=0.5;entryY=0;entryDx=0;entryDy=0;" edge="1" parent="1" source="f5hSvnvCY-JdjGYWSw_D-42" target="f5hSvnvCY-JdjGYWSw_D-35">
          <mxGeometry relative="1" as="geometry">
            <mxPoint x="1291" y="400" as="targetPoint" />
            <mxPoint x="1470" y="370" as="sourcePoint" />
          </mxGeometry>
        </mxCell>
        <mxCell id="f5hSvnvCY-JdjGYWSw_D-42" value="Actor" style="shape=umlActor;verticalLabelPosition=bottom;verticalAlign=top;html=1;outlineConnect=0;" vertex="1" parent="1">
          <mxGeometry x="1470" y="340" width="30" height="60" as="geometry" />
        </mxCell>
        <mxCell id="f5hSvnvCY-JdjGYWSw_D-45" value="" style="outlineConnect=0;dashed=0;verticalLabelPosition=bottom;verticalAlign=top;align=center;html=1;shape=mxgraph.aws3.dynamo_db;fillColor=#2E73B8;gradientColor=none;" vertex="1" parent="1">
          <mxGeometry x="1591" y="829.5" width="72" height="81" as="geometry" />
        </mxCell>
        <mxCell id="f5hSvnvCY-JdjGYWSw_D-46" style="edgeStyle=orthogonalEdgeStyle;rounded=0;orthogonalLoop=1;jettySize=auto;html=1;fontSize=12;startSize=8;endSize=8;dashed=1;flowAnimation=1;entryX=0.5;entryY=0;entryDx=0;entryDy=0;entryPerimeter=0;" edge="1" parent="1" source="f5hSvnvCY-JdjGYWSw_D-33" target="f5hSvnvCY-JdjGYWSw_D-45">
          <mxGeometry relative="1" as="geometry">
            <mxPoint x="1456.5" y="790.25" as="sourcePoint" />
            <mxPoint x="1456.5" y="949.75" as="targetPoint" />
            <Array as="points">
              <mxPoint x="1627" y="830" />
            </Array>
          </mxGeometry>
        </mxCell>
        <mxCell id="f5hSvnvCY-JdjGYWSw_D-47" value="Dynamo" style="text;html=1;align=center;verticalAlign=middle;resizable=0;points=[];autosize=1;strokeColor=none;fillColor=none;fontSize=16;" vertex="1" parent="1">
          <mxGeometry x="1581" y="920" width="80" height="30" as="geometry" />
        </mxCell>
        <mxCell id="f5hSvnvCY-JdjGYWSw_D-51" value="Sistema&lt;div&gt;de arquivo&lt;/div&gt;" style="text;html=1;align=center;verticalAlign=middle;resizable=0;points=[];autosize=1;strokeColor=none;fillColor=none;fontSize=16;" vertex="1" parent="1">
          <mxGeometry x="1435" y="280" width="100" height="50" as="geometry" />
        </mxCell>
      </root>
    </mxGraphModel>
  </diagram>
</mxfile>
